# xmcd
#
# Track frame offsets:
#	150
#	12110
#	25475
#	38545
#	52625
#	66153
#	80587
#	93412
#	106712
#	121716
#	137332
#	151017
#	163900
#	176448
#
# Disc length: 2577 seconds
#
# Revision: 1
# Processed by: cddbd v1.5.1PL2 Copyright (c) Steve Scherf et al.
# Submitted via: audiograbber 1.83.01
#
DISCID=970a0f0e
DTITLE=Del McCOury Band - The Promised Land
DYEAR=2006
DGENRE=Bluegrass
TTITLE0=I'm Bound For The Hand Of Canaan
TTITLE1=I'm Poor As A Beggar
TTITLE2=It's Surprising What The Lord Can Do
TTITLE3=Jesus Carried Me A Cross
TTITLE4=Five Flat Rocks
TTITLE5=I'll Put It On A Crown And Walk Around
TTITLE6=Don't Put It Off Until Tomorrow
TTITLE7=Led By The Master's Hand
TTITLE8=It's An Unfriendly World
TTITLE9=Gold Under My Feet
TTITLE10=Aint' Nothing Going To Come Up Today
TTITLE11=We Know Where He Is
TTITLE12=Sit Down With Jesus
TTITLE13=The Lord Is Writing Down Names
EXTD=
EXTT0=
EXTT1=
EXTT2=
EXTT3=
EXTT4=
EXTT5=
EXTT6=
EXTT7=
EXTT8=
EXTT9=
EXTT10=
EXTT11=
EXTT12=
EXTT13=
PLAYORDER=
